<?xml version="1.0" standalone="no"?>
<!DOCTYPE svg PUBLIC "-//W3C//DTD SVG 1.1//EN" "http://www.w3.org/Graphics/SVG/1.1/DTD/svg11.dtd" >
<svg xmlns="http://www.w3.org/2000/svg">
<metadata>Generated by IcoMoon</metadata>
<defs>
<font id="PlayON-F1" horiz-adv-x="1024">
<font-face units-per-em="1024" ascent="960" descent="-64" />
<missing-glyph horiz-adv-x="1024" />
<glyph unicode="&#x20;" horiz-adv-x="512" d="" />
<glyph unicode="&#xe900;" glyph-name="arrow-left" d="M659.2 960l108.8-106.667-337.067-346.027c-14.304-14.543-23.135-34.507-23.135-56.533s8.831-41.991 23.146-56.544l-0.011 0.011 337.067-352.427-109.227-105.813-336.213 350.293c-41.961 41.996-67.912 99.994-67.912 164.053s25.951 122.057 67.913 164.055l-0.001-0.001z" />
<glyph unicode="&#xe901;" glyph-name="bell" d="M992 160c0.39 0.018 0.848 0.028 1.308 0.028 16.966 0 30.72-13.754 30.72-30.72 0-0.46-0.010-0.918-0.030-1.373l0.002 0.065v-32c0.018-0.39 0.028-0.848 0.028-1.308 0-16.966-13.754-30.72-30.72-30.72-0.46 0-0.918 0.010-1.373 0.030l0.065-0.002h-960c-0.39-0.018-0.848-0.028-1.308-0.028-16.966 0-30.72 13.754-30.72 30.72 0 0.46 0.010 0.918 0.030 1.373l-0.002-0.065v32c-0.018 0.39-0.028 0.848-0.028 1.308 0 16.966 13.754 30.72 30.72 30.72 0.46 0 0.918-0.010 1.373-0.030l-0.065 0.002h32v96c0.332 149.209 73.974 281.148 186.806 361.748l1.354 0.919c54.739 40.968 121.272 69.218 193.648 79.115l2.192 0.245v37.973h-96c-0.39-0.018-0.848-0.028-1.308-0.028-16.966 0-30.72 13.754-30.72 30.72 0 0.46 0.010 0.918 0.030 1.373l-0.002-0.065v32c-0.018 0.39-0.028 0.848-0.028 1.308 0 16.966 13.754 30.72 30.72 30.72 0.46 0 0.918-0.010 1.373-0.030l-0.065 0.002h320c0.39 0.018 0.848 0.028 1.308 0.028 16.966 0 30.72-13.754 30.72-30.72 0-0.46-0.010-0.918-0.030-1.373l0.002 0.065v-32c0.018-0.39 0.028-0.848 0.028-1.308 0-16.966-13.754-30.72-30.72-30.72-0.46 0-0.918 0.010-1.373 0.030l0.065-0.002h-96v-37.973c74.568-10.142 141.101-38.392 196.945-80.15l-1.105 0.79c114.186-81.519 187.828-213.458 188.16-362.614v-96.053zM864 160v96c0.005 0.667 0.007 1.456 0.007 2.246 0 64.379-17.431 124.687-47.831 176.462l0.891-1.641c-31.406 53.334-74.666 96.594-126.349 127.099l-1.651 0.901c-50.873 29.508-111.936 46.923-177.067 46.923s-126.194-17.415-178.788-47.842l1.721 0.919c-53.334-31.406-96.594-74.666-127.099-126.349l-0.901-1.651c-29.509-50.134-46.941-110.442-46.941-174.821 0-0.79 0.003-1.579 0.008-2.367l-0.001 0.121v-96z" />
<glyph unicode="&#xe902;" glyph-name="book" d="M873.387 960h-609.707c-0.127 0-0.277 0.001-0.427 0.001-95.435 0-172.8-77.365-172.8-172.8 0 0 0 0 0 0v0-677.547c0 0 0 0 0-0.001 0-95.756 77.504-173.41 173.203-173.653h609.73c33.225 0 60.16 26.935 60.16 60.16v903.68c0.004 0.254 0.006 0.554 0.006 0.855 0 32.754-26.552 59.307-59.307 59.307-0.152 0-0.304-0.001-0.456-0.002h0.023zM210.773 787.2c0.242 29.035 23.835 52.48 52.905 52.48 0.001 0 0.001 0 0.002 0h549.547v-554.667h-549.973c-0.543 0.006-1.185 0.010-1.828 0.010-18.082 0-35.506-2.812-51.861-8.022l1.209 0.332zM813.227 56.32h-549.547c-29.271 0.242-52.907 24.026-52.907 53.332 0 0.001 0 0.001 0 0.002v0 2.133c0 0.002 0 0.004 0 0.007 0 29.391 23.585 53.273 52.862 53.753l0.045 0.001h549.547z" />
<glyph unicode="&#xe903;" glyph-name="chart" d="M0 152.747h1024v-131.413h-1024zM128 415.147h128v-196.693h-128zM320 677.547h128v-459.093h-128zM512 480.853h128v-262.4h-128zM704 874.667h128v-656.213h-128z" />
<glyph unicode="&#xe904;" glyph-name="daily-fantasy" d="M308.907 602.88h-46.080v-303.36h45.227c2.463-0.215 5.329-0.338 8.223-0.338 30.93 0 58.589 14.005 76.981 36.019l0.129 0.159c18.833 26.005 30.125 58.545 30.125 93.722 0 3.203-0.094 6.384-0.278 9.541l0.020-0.436v23.893c0.166 2.796 0.261 6.066 0.261 9.358 0 35.937-11.276 69.24-30.484 96.564l0.357-0.535c-18.888 21.878-46.66 35.642-77.647 35.642-2.404 0-4.789-0.083-7.152-0.246l0.319 0.018zM512 960c-282.77 0-512-229.23-512-512s229.23-512 512-512c282.77 0 512 229.23 512 512v0c0 282.77-229.23 512-512 512v0zM517.12 440.747c0.007-0.698 0.011-1.522 0.011-2.347 0-40.204-9.62-78.161-26.685-111.694l0.647 1.401c-16.938-32.511-42.159-58.691-72.908-76.321l-0.906-0.479c-30.245-17.448-66.52-27.742-105.199-27.742-0.666 0-1.331 0.003-1.996 0.009l0.102-0.001h-139.52v455.253h138.667c1.129 0.022 2.461 0.034 3.795 0.034 38.085 0 73.838-9.98 104.789-27.467l-1.064 0.553c31.285-18.25 56.386-44.035 73.307-74.938l0.506-1.009c16.693-31.769 26.489-69.414 26.489-109.347 0-1.458-0.013-2.913-0.039-4.365l0.003 0.218zM679.68 602.88v-117.333h179.627v-75.947h-179.627v-185.6h-93.867v454.827h296.107v-75.947z" />
<glyph unicode="&#xe905;" glyph-name="exclamation" d="M1024 448l-113.493 128 15.787 168.107-168.107 36.693-87.893 145.067-158.293-66.56-158.293 66.56-87.893-145.067-168.107-37.12 15.787-167.68-113.493-128 113.493-128-15.787-170.667 168.107-37.547 87.893-145.067 158.293 70.4 158.293-66.56 87.893 145.067 168.107 37.547-15.787 166.827zM558.507 219.733h-93.013v91.307h93.013zM558.507 402.773h-93.013v273.92h93.013z" />
<glyph unicode="&#xe906;" glyph-name="graph" d="M899.84 960l-387.84-384-128 128-384-387.84 128-128 256 259.84 128-128 512 512zM0 64v-128h1024v128z" />
<glyph unicode="&#xe907;" glyph-name="grid" d="M0 800c-0.012 0.557-0.019 1.214-0.019 1.872 0 25.92 10.8 49.317 28.147 65.937l0.033 0.031c16.651 17.379 40.048 28.179 65.968 28.179 0.658 0 1.315-0.007 1.969-0.021l-0.098 0.002h832c0.504 0.010 1.098 0.016 1.693 0.016 25.975 0 49.429-10.796 66.119-28.146l0.028-0.030c17.379-16.651 28.179-40.048 28.179-65.968 0-0.658-0.007-1.315-0.021-1.969l0.002 0.098v-704c0-53.019-42.981-96-96-96v0h-832c-0.557-0.012-1.214-0.019-1.872-0.019-25.92 0-49.317 10.8-65.937 28.147l-0.031 0.033c-17.379 16.651-28.179 40.048-28.179 65.968 0 0.658 0.007 1.315 0.021 1.969l-0.002-0.098zM464.213 800h-356.267c-5.972-0.484-10.792-4.869-11.933-10.582l-0.014-0.084v-292.267h368.213zM96 400.213v-293.547c0.606-6.339 5.608-11.34 11.893-11.943l0.053-0.004h356.267v305.493zM928 495.787v293.547c-0.606 6.339-5.608 11.34-11.893 11.943l-0.053 0.004h-356.267v-304.213zM559.787 96h356.267c6.339 0.606 11.34 5.608 11.943 11.893l0.004 0.053v292.267h-368.213z" />
<glyph unicode="&#xe908;" glyph-name="helmet" d="M1003.093 314.88c-4.58 5.049-9.611 9.538-15.076 13.46l-0.284 0.194-74.667 189.013-32.427 89.173-3.84 11.947-2.56 4.267c-42.773 93.983-115.244 168.247-205.229 212.205l-2.558 1.128c-59.249 28.665-128.857 45.417-202.377 45.417-35.012 0-69.137-3.799-101.985-11.008l3.136 0.578c-208.83-40.792-364.263-222.297-364.263-440.105 0-29.806 2.911-58.932 8.464-87.11l-0.467 2.841c33.707-158.293 119.040-270.507 244.48-325.547l13.227-5.973h586.667c0.219-0.001 0.478-0.002 0.737-0.002 11.357 0 22.46 1.088 33.211 3.164l-1.094-0.176c63.046 13.909 111.346 64.073 122.317 127.056l0.136 0.944 15.36 99.413c0.469 3.412 0.737 7.355 0.737 11.36 0 22.159-8.2 42.402-21.731 57.862l0.087-0.102zM853.333 518.4l68.693-173.653-401.493 8.107c-47.488 1.642-85.36 40.533-85.36 88.27 0 0.768 0.010 1.533 0.029 2.296l-0.002-0.113c1.453 40.624 31.091 73.916 69.878 80.988l0.522 0.079c5.489 1.363 11.791 2.145 18.276 2.145 0.475 0 0.949-0.004 1.422-0.013l-0.071 0.001 267.947-7.253h60.16zM957.867 255.573l-14.507-97.28c-2.729-18.965-11.342-35.551-23.899-48.219l0.006 0.006c-6.148-6.586-13.166-12.246-20.899-16.828l-0.435-0.238c-7.321-3.891-15.833-7.245-24.745-9.62l-0.855-0.194c-2.872-0.209-6.222-0.329-9.6-0.329s-6.728 0.119-10.046 0.354l0.446-0.025h-573.013c-50.137 21.518-92.014 53.947-124.086 94.49l-0.501 0.657c-3.181 3.573-6.262 7.468-9.114 11.536l-0.273 0.411c-34.154 48.478-59.427 105.817-72.039 167.758l-0.495 2.909c-4.709 21.855-7.406 46.963-7.406 72.701 0 67.607 18.609 130.868 50.983 184.939l-0.91-1.64c6.307 11.319 12.378 20.797 18.949 29.89l-0.603-0.876c74.837 102.514 194.588 168.362 329.719 168.362 54.603 0 106.696-10.752 154.275-30.254l-2.714 0.984 7.68-2.987c9.686-3.877 17.687-7.743 25.392-12.074l-1.072 0.554s0 0 2.133 0c73.050-38.506 130.216-98.838 163.76-172.228l0.933-2.279 4.267-11.52h-24.747l-271.36 7.253c-0.042 0-0.092 0-0.141 0-11.161 0-21.995-1.4-32.336-4.035l0.904 0.195c-8.973-1.944-16.678-4.294-24.109-7.194l1.069 0.367c-6.941-2.447-12.855-5.182-18.462-8.393l0.542 0.286c-8.81-4.121-16.396-9.113-23.152-15.029l0.112 0.096-11.093-8.96c-21.25-19.392-36.416-45.122-42.508-74.188l-0.159-0.905c0-4.693-2.133-9.813-2.987-14.933-0.101-1.023-0.159-2.211-0.159-3.413s0.058-2.39 0.171-3.562l-0.012 0.149c-0.096-1.213-0.151-2.627-0.151-4.053s0.055-2.84 0.162-4.239l-0.011 0.186c-0.017-0.849-0.026-1.85-0.026-2.853 0-21.274 4.243-41.558 11.928-60.050l-0.382 1.037c6.35-14.164 13.768-26.37 22.482-37.512l-0.296 0.392 9.813-10.667c10.163-10.012 21.489-18.894 33.741-26.412l0.819-0.468c20.759-11.883 45.535-19.097 71.952-19.624l0.155-0.002 417.707-10.667c0.833 0.193 1.79 0.304 2.773 0.304s1.94-0.111 2.859-0.321l-0.086 0.016c0.576 0.155 1.238 0.244 1.92 0.244s1.344-0.089 1.974-0.256l-0.054 0.012c4.325-1.908 7.665-5.386 9.346-9.694l0.041-0.119c0.191-1.154 0.3-2.484 0.3-3.84s-0.109-2.686-0.319-3.982l0.019 0.142z" />
<glyph unicode="&#xe909;" glyph-name="list-ul-inverse" d="M846.507 189.867c-0.001 0.084-0.002 0.184-0.002 0.283 0 6.611 2.784 12.571 7.244 16.772l0.012 0.011c4.002 4.47 9.791 7.269 16.233 7.269 0.293 0 0.585-0.006 0.875-0.017l-0.042 0.001h128c0.304 0.015 0.66 0.024 1.018 0.024 6.387 0 12.118-2.807 16.028-7.254l0.021-0.024c4.47-4.002 7.269-9.791 7.269-16.233 0-0.293-0.006-0.585-0.017-0.875l0.001 0.042v-128c0.010-0.249 0.016-0.54 0.016-0.833 0-6.442-2.8-12.231-7.249-16.215l-0.021-0.018c-4.143-4.47-10.046-7.258-16.601-7.258-0.164 0-0.327 0.002-0.49 0.005h-127.976c-13.336 0.235-24.085 10.984-24.32 24.298v0.022zM846.507 512.427c0.235 13.336 10.984 24.085 24.298 24.32h128.022c0.139 0.003 0.302 0.005 0.466 0.005 6.554 0 12.457-2.788 16.587-7.244l0.013-0.015c4.47-4.002 7.269-9.791 7.269-16.233 0-0.293-0.006-0.585-0.017-0.875l0.001 0.042v-128c0.010-0.249 0.016-0.54 0.016-0.833 0-6.442-2.8-12.231-7.249-16.215l-0.021-0.018c-4.143-4.47-10.046-7.258-16.601-7.258-0.164 0-0.327 0.002-0.49 0.005h-127.976c-13.336 0.235-24.085 10.984-24.32 24.298v0.022zM846.507 834.987c0.235 13.336 10.984 24.085 24.298 24.32h128.022c0.139 0.003 0.302 0.005 0.466 0.005 6.554 0 12.457-2.788 16.587-7.244l0.013-0.015c4.47-4.002 7.269-9.791 7.269-16.233 0-0.293-0.006-0.585-0.017-0.875l0.001 0.042v-130.987c0.010-0.249 0.016-0.54 0.016-0.833 0-6.442-2.8-12.231-7.249-16.215l-0.021-0.018c-3.93-4.471-9.662-7.278-16.048-7.278-0.358 0-0.714 0.009-1.068 0.026l0.050-0.002h-128c-0.249-0.010-0.54-0.016-0.833-0.016-6.442 0-12.231 2.8-16.215 7.249l-0.018 0.021c-4.471 4.212-7.255 10.173-7.255 16.783 0 0.1 0.001 0.199 0.002 0.298v-0.015zM24.32 181.76c-0.205 0.007-0.445 0.010-0.687 0.010-6.406 0-12.202-2.615-16.378-6.835l-0.002-0.002c-4.457-4.329-7.23-10.372-7.253-17.062v-64.431c0-0.050-0.001-0.108-0.001-0.167 0-6.781 2.775-12.913 7.251-17.324l0.003-0.003c4.178-4.222 9.974-6.837 16.38-6.837 0.241 0 0.482 0.004 0.722 0.011l-0.035-0.001h725.333c0.259-0.010 0.564-0.016 0.869-0.016 12.96 0 23.467 10.506 23.467 23.467 0 0.306-0.006 0.61-0.017 0.913l0.001-0.044v64.427c0.004 0.153 0.006 0.333 0.006 0.514 0 6.46-2.61 12.31-6.833 16.553l0.001-0.001c-4.307 4.229-10.216 6.839-16.734 6.839-0.267 0-0.533-0.004-0.798-0.013l0.039 0.001zM0 480.427c0.023 6.695 2.796 12.737 7.248 17.061l0.006 0.006c4.178 4.222 9.974 6.837 16.38 6.837 0.241 0 0.482-0.004 0.722-0.011l-0.035 0.001h725.333c0.226 0.008 0.492 0.012 0.759 0.012 6.518 0 12.427-2.61 16.738-6.842l-0.004 0.004c4.222-4.243 6.832-10.093 6.832-16.552 0-0.181-0.002-0.361-0.006-0.541v0.027-64.853c0.004-0.153 0.006-0.333 0.006-0.514 0-6.46-2.61-12.31-6.833-16.553l0.001 0.001c-4.307-4.229-10.216-6.839-16.734-6.839-0.267 0-0.533 0.004-0.798 0.013l0.039-0.001h-725.333c-0.205-0.007-0.445-0.010-0.687-0.010-6.406 0-12.202 2.615-16.378 6.835l-0.002 0.002c-4.457 4.329-7.23 10.372-7.253 17.062v0.004zM0 802.56c0 0.050-0.001 0.108-0.001 0.167 0 6.781 2.775 12.913 7.251 17.324l0.003 0.003c4.178 4.222 9.974 6.837 16.38 6.837 0.241 0 0.482-0.004 0.722-0.011l-0.035 0.001h725.333c0.259 0.010 0.564 0.016 0.869 0.016 12.96 0 23.467-10.506 23.467-23.467 0-0.306-0.006-0.61-0.017-0.913l0.001 0.044v-64.427c0.004-0.153 0.006-0.333 0.006-0.514 0-6.46-2.61-12.31-6.833-16.553l0.001 0.001c-4.307-4.229-10.216-6.839-16.734-6.839-0.267 0-0.533 0.004-0.798 0.013l0.039-0.001h-725.333c-0.205-0.007-0.445-0.010-0.687-0.010-6.406 0-12.202 2.615-16.378 6.835l-0.002 0.002c-4.457 4.329-7.23 10.372-7.253 17.062v0.004z" />
<glyph unicode="&#xe90a;" glyph-name="list-ul" d="M177.493 704c0.001-0.084 0.002-0.184 0.002-0.283 0-6.611-2.784-12.571-7.244-16.772l-0.012-0.011c-4.002-4.47-9.791-7.269-16.233-7.269-0.293 0-0.585 0.006-0.875 0.017l0.042-0.001h-128c-0.304-0.015-0.66-0.024-1.018-0.024-6.387 0-12.118 2.807-16.028 7.254l-0.021 0.024c-4.962 4.021-8.107 10.115-8.107 16.944 0 0.043 0 0.086 0 0.129v-0.007 128c-0.010 0.249-0.016 0.54-0.016 0.833 0 6.442 2.8 12.231 7.249 16.215l0.021 0.018c4.143 4.47 10.046 7.258 16.601 7.258 0.164 0 0.327-0.002 0.49-0.005h127.976c13.336-0.235 24.085-10.984 24.32-24.298v-0.022zM177.493 381.44c-0.235-13.336-10.984-24.085-24.298-24.32h-128.022c-0.139-0.003-0.302-0.005-0.466-0.005-6.554 0-12.457 2.788-16.587 7.244l-0.013 0.015c-4.47 4.002-7.269 9.791-7.269 16.233 0 0.293 0.006 0.585 0.017 0.875l-0.001-0.042v128c-0.010 0.249-0.016 0.54-0.016 0.833 0 6.442 2.8 12.231 7.249 16.215l0.021 0.018c4.143 4.47 10.046 7.258 16.601 7.258 0.164 0 0.327-0.002 0.49-0.005h127.976c13.336-0.235 24.085-10.984 24.32-24.298v-0.022zM177.493 58.88c-0.235-13.336-10.984-24.085-24.298-24.32h-128.022c-0.139-0.003-0.302-0.005-0.466-0.005-6.554 0-12.457 2.788-16.587 7.244l-0.013 0.015c-4.47 4.002-7.269 9.791-7.269 16.233 0 0.293 0.006 0.585 0.017 0.875l-0.001-0.042v128c-0.010 0.249-0.016 0.54-0.016 0.833 0 6.442 2.8 12.231 7.249 16.215l0.021 0.018c3.93 4.471 9.662 7.278 16.048 7.278 0.358 0 0.714-0.009 1.068-0.026l-0.050 0.002h128c0.249 0.010 0.54 0.016 0.833 0.016 6.442 0 12.231-2.8 16.215-7.249l0.018-0.021c4.471-4.212 7.255-10.173 7.255-16.783 0-0.1-0.001-0.199-0.002-0.298v0.015zM999.68 714.24c0.205-0.007 0.445-0.010 0.687-0.010 6.406 0 12.202 2.615 16.378 6.835l0.002 0.002c4.457 4.329 7.23 10.372 7.253 17.062v64.431c0 0.050 0.001 0.108 0.001 0.167 0 6.781-2.775 12.913-7.251 17.324l-0.003 0.003c-4.178 4.222-9.974 6.837-16.38 6.837-0.241 0-0.482-0.004-0.722-0.011l0.035 0.001h-725.333c-0.259 0.010-0.564 0.016-0.869 0.016-12.96 0-23.467-10.506-23.467-23.467 0-0.306 0.006-0.61 0.017-0.913l-0.001 0.044v-64.427c-0.026-0.412-0.041-0.894-0.041-1.38 0-6.041 2.283-11.549 6.032-15.708l-0.019 0.021c4.307-4.229 10.216-6.839 16.734-6.839 0.267 0 0.533 0.004 0.798 0.013l-0.039-0.001zM1024 415.573c-0.023-6.695-2.796-12.737-7.248-17.061l-0.006-0.006c-4.178-4.222-9.974-6.837-16.38-6.837-0.241 0-0.482 0.004-0.722 0.011l0.035-0.001h-725.333c-0.47-0.033-1.019-0.052-1.572-0.052-6.538 0-12.463 2.626-16.777 6.881l0.003-0.003c-4.222 4.243-6.832 10.093-6.832 16.552 0 0.181 0.002 0.361 0.006 0.541v-0.027 64.853c-0.004 0.153-0.006 0.333-0.006 0.514 0 6.46 2.61 12.31 6.833 16.553l-0.001-0.001c4.307 4.229 10.216 6.839 16.734 6.839 0.267 0 0.533-0.004 0.798-0.013l-0.039 0.001h725.333c0.205 0.007 0.445 0.010 0.687 0.010 6.406 0 12.202-2.615 16.378-6.835l0.002-0.002c4.457-4.329 7.23-10.372 7.253-17.062v-0.004zM1024 93.44c0-0.050 0.001-0.108 0.001-0.167 0-6.781-2.775-12.913-7.251-17.324l-0.003-0.003c-4.178-4.222-9.974-6.837-16.38-6.837-0.241 0-0.482 0.004-0.722 0.011l0.035-0.001h-725.333c-0.259-0.010-0.564-0.016-0.869-0.016-12.96 0-23.467 10.506-23.467 23.467 0 0.306 0.006 0.61 0.017 0.913l-0.001-0.044v64.427c-0.026 0.412-0.041 0.894-0.041 1.38 0 6.041 2.283 11.549 6.032 15.708l-0.019-0.021c4.307 4.229 10.216 6.839 16.734 6.839 0.267 0 0.533-0.004 0.798-0.013l-0.039 0.001h725.333c0.205 0.007 0.445 0.010 0.687 0.010 6.406 0 12.202-2.615 16.378-6.835l0.002-0.002c4.457-4.329 7.23-10.372 7.253-17.062v-0.004z" />
<glyph unicode="&#xe90b;" glyph-name="pencil" d="M986.027 847.787c23.432-22.615 37.982-54.299 37.982-89.382 0-0.527-0.003-1.053-0.010-1.578l0.001 0.080c0.006-0.445 0.009-0.971 0.009-1.498 0-35.083-14.55-66.767-37.946-89.347l-0.037-0.035-704-704-233.813-26.027c-0.338-0.009-0.735-0.014-1.134-0.014-13.91 0-26.353 6.279-34.649 16.158l-0.057 0.070c-7.859 8.55-12.676 20.003-12.676 32.582 0 1.899 0.11 3.773 0.324 5.615l-0.021-0.224 25.6 227.84 704.427 704c23.22 23.514 55.456 38.078 91.093 38.078s67.873-14.564 91.080-38.065l0.013-0.013zM238.080 54.187l523.947 521.813-119.893 122.027-523.947-523.947-15.787-136.107zM918.187 733.867c6.041 5.829 9.793 13.996 9.793 23.040s-3.752 17.211-9.783 23.031l-0.010 0.009-74.24 73.813c-5.711 6.289-13.914 10.226-23.037 10.24h-0.003c-9.105-0.125-17.273-4.033-23.022-10.22l-0.018-0.020-87.893-87.893 119.893-119.893z" />
<glyph unicode="&#xe90c;" glyph-name="pitch" d="M903.253 64h-775.253l230.827 768h313.173l230.827-768zM64 64v0c-35.346 0-64 28.654-64 64v0l192 640c0 35.346 28.654 64 64 64v0h38.827zM966.827 64v0l-230.827 768h32c35.346 0 64-28.654 64-64v0l192-640c0.001-0.108 0.001-0.237 0.001-0.365 0-32.942-24.888-60.071-56.886-63.609l-0.288-0.026z" />
<glyph unicode="&#xe90d;" glyph-name="question" d="M512-64c-282.77 0-512 229.23-512 512s229.23 512 512 512c282.77 0 512-229.23 512-512v0 0c0-282.77-229.23-512-512-512v0zM512 841.813c-217.497 0-393.813-176.316-393.813-393.813s176.316-393.813 393.813-393.813c217.497 0 393.813 176.316 393.813 393.813v0c0 217.497-176.316 393.813-393.813 393.813v0zM508.16 338.773c0 0-0.001 0-0.002 0-33.311 0-60.343 26.883-60.585 60.137v0.023c0.178 26.828 17.89 49.472 42.24 57.059l0.426 0.114c33.707 11.52 97.28 47.36 97.28 81.493 0 0.042 0 0.093 0 0.143 0 43.122-34.958 78.080-78.080 78.080-34.005 0-62.933-21.738-73.645-52.076l-0.168-0.547c-8.162-24.59-30.953-42.012-57.813-42.012-33.571 0-60.785 27.214-60.785 60.785 0 6.71 1.087 13.167 3.095 19.203l-0.124-0.429c-0.067 0.449-0.105 0.967-0.105 1.493s0.038 1.045 0.112 1.551l-0.007-0.058c28.13 77.865 101.404 132.514 187.442 132.514 24.61 0 48.175-4.471 69.928-12.645l-1.371 0.452c77.303-28.305 131.602-100.953 132.266-186.372v-0.081c0-132.267-161.28-189.867-180.053-196.267-5.583-1.634-11.997-2.575-18.631-2.575-0.5 0-0.999 0.005-1.497 0.016l0.074-0.001zM512 162.133c-0.129-0.001-0.281-0.002-0.433-0.002-32.69 0-59.247 26.26-59.727 58.836l-0.001 0.045c0 0.075-0.001 0.165-0.001 0.254 0 16.55 6.683 31.539 17.497 42.415l-0.003-0.003 8.96 7.68 10.667 5.547 10.667 3.413c3.691 0.817 7.93 1.285 12.279 1.285 8.356 0 16.308-1.728 23.519-4.846l-0.384 0.148c21.874-9.362 36.954-30.633 37.12-55.446v-0.021c-0.241-32.806-26.891-59.308-59.732-59.308-0.151 0-0.301 0.001-0.451 0.002h0.023z" />
<glyph unicode="&#xe90e;" glyph-name="star" d="M971.52 610.56c16.017-2.198 29.71-10.703 38.716-22.883l0.111-0.157c8.57-10.583 13.758-24.21 13.758-39.049 0-1.273-0.038-2.536-0.113-3.79l0.008 0.173c-0.69-15.854-7.593-29.972-18.317-40.079l-0.029-0.027-202.667-197.12 47.787-279.467c0.541-3.053 0.851-6.567 0.851-10.154 0-12.056-3.497-23.295-9.531-32.759l0.147 0.246c-7.778-12.926-20.263-22.347-35.028-25.947l-0.386-0.079c-4.144-1.050-8.901-1.652-13.799-1.652-10.615 0-20.57 2.83-29.15 7.776l0.283-0.15-252.16 130.56-250.88-130.133c-8.297-4.796-18.252-7.626-28.867-7.626-4.898 0-9.655 0.602-14.202 1.737l0.403-0.085c-15.151 3.68-27.636 13.1-35.272 25.773l-0.142 0.253c-5.888 9.217-9.384 20.457-9.384 32.512 0 3.587 0.31 7.101 0.903 10.518l-0.052-0.364 47.787 279.467-203.947 197.547c-10.754 10.135-17.657 24.253-18.342 39.984l-0.004 0.122c-0.067 1.081-0.105 2.345-0.105 3.618 0 14.839 5.188 28.466 13.85 39.166l-0.092-0.117c9.117 12.337 22.81 20.842 38.526 23.006l0.3 0.034 279.467 40.107 124.587 252.16c6.776 14.047 18.506 24.807 32.87 30.16l0.41 0.134c6.361 2.241 13.696 3.535 21.333 3.535s14.972-1.295 21.797-3.676l-0.464 0.141c14.774-5.486 26.504-16.247 33.126-29.939l0.154-0.354 124.587-253.013zM705.28 340.907l190.72 187.307-266.24 38.4-117.76 241.067-118.613-241.067-265.387-38.4 191.573-187.307-42.667-266.24 237.227 128 237.227-128z" />
<glyph unicode="&#xe90f;" glyph-name="t-shirt" d="M1020.587 663.893c2.156-6.052 3.403-13.034 3.403-20.306 0-10.007-2.359-19.462-6.552-27.841l0.163 0.36-85.333-170.667c-7.075-15.126-19.813-26.613-35.416-31.876l-0.424-0.124c-5.438-1.94-11.711-3.062-18.245-3.062-10.767 0-20.824 3.045-29.355 8.32l0.24-0.138-38.4 17.493c-1.645 0.656-3.551 1.036-5.547 1.036s-3.902-0.38-5.651-1.073l0.104 0.036c-3.837-1.923-6.425-5.825-6.425-10.332 0-0.268 0.009-0.534 0.027-0.797l-0.002 0.036v-296.96c-0.478-49.291-40.309-89.122-89.554-89.6h-384.046c-49.291 0.478-89.122 40.309-89.6 89.554v298.713c0.001 0.045 0.001 0.098 0.001 0.152 0 4.224-2.192 7.935-5.5 10.060l-0.048 0.029c-1.69 1.095-3.756 1.746-5.973 1.746s-4.284-0.651-6.017-1.772l0.043 0.026-38.4-19.2c-7.545-3.923-16.475-6.224-25.942-6.224-7.236 0-14.158 1.344-20.529 3.796l0.391-0.132c-16.331 5.701-29.319 17.439-36.529 32.474l-0.164 0.38-85.333 170.667c-3.559 7.601-5.636 16.504-5.636 25.893 0 6.912 1.126 13.561 3.204 19.774l-0.128-0.44c5.145 16.043 16.729 28.743 31.632 35.27l0.368 0.144 316.587 158.293 3.413-6.4c11.891-18.541 26.829-34.023 44.27-46.158l0.53-0.349c29.619-17.283 65.201-27.486 103.167-27.486 3.032 0 6.048 0.065 9.048 0.194l-0.428-0.015c2.572-0.114 5.588-0.179 8.619-0.179 37.966 0 73.549 10.203 104.156 28.017l-0.989-0.531c17.971 12.484 32.909 27.966 44.414 45.865l0.386 0.642 3.413 6.4 316.587-158.293c15.271-6.671 26.855-19.37 31.887-35.009l0.113-0.405zM870.4 493.227l71.68 142.080-249.173 126.293c-22.312-18.737-48.791-33.353-77.773-42.248l-1.587-0.419c-30.063-10.953-64.788-17.88-100.946-19.183l-0.601-0.017c-1.569-0.030-3.42-0.047-5.275-0.047-34.489 0-67.586 5.956-98.32 16.897l2.048-0.636c-30.654 10.453-57.077 26.010-79.614 45.873l0.254-0.22-249.173-123.307 71.68-143.787 116.907 54.187c3.488 2.31 7.77 3.685 12.373 3.685s8.885-1.375 12.458-3.738l-0.084 0.052c7.175-3.997 11.948-11.539 11.948-20.195 0-0.1-0.001-0.201-0.002-0.301v0.015-400.213c0.071-3.376 1.532-6.398 3.832-8.526l0.008-0.007c2.197-2.527 5.378-4.149 8.94-4.266l0.020-0.001h384c3.582 0.117 6.763 1.74 8.947 4.252l0.013 0.015c2.308 2.135 3.769 5.157 3.84 8.521v398.52c-0.017 0.336-0.027 0.729-0.027 1.125 0 8.666 4.785 16.215 11.857 20.149l0.117 0.060c3.515 2.214 7.791 3.527 12.373 3.527s8.858-1.313 12.471-3.584l-0.098 0.057z" />
<glyph unicode="&#xe910;" glyph-name="ticket" d="M1009.92 519.253h14.080v184.747c0.010 0.479 0.016 1.044 0.016 1.611 0 23.039-9.661 43.821-25.154 58.516l-0.036 0.034c-14.729 15.528-35.511 25.189-58.549 25.189-0.566 0-1.131-0.006-1.695-0.017l0.084 0.001h-853.333c-0.479 0.010-1.044 0.016-1.611 0.016-23.039 0-43.821-9.661-58.516-25.154l-0.034-0.036c-15.528-14.729-25.189-35.511-25.189-58.549 0-0.566 0.006-1.131 0.017-1.695l-0.001 0.084v-184.747h14.080c0.49 0.012 1.066 0.020 1.645 0.020 19.213 0 36.596-7.839 49.123-20.494l0.006-0.006c12.625-13.16 20.399-31.059 20.399-50.773s-7.774-37.614-20.423-50.799l0.024 0.025c-12.533-12.66-29.915-20.5-49.129-20.5-0.578 0-1.155 0.007-1.73 0.021l0.085-0.002h-14.080v-184.747c-0.010-0.479-0.016-1.044-0.016-1.611 0-23.039 9.661-43.821 25.154-58.516l0.036-0.034c14.729-15.528 35.511-25.189 58.549-25.189 0.566 0 1.131 0.006 1.695 0.017l-0.084-0.001h853.333c47.128 0 85.333 38.205 85.333 85.333v0 184.747h-14.080c-39.352 0-71.253 31.901-71.253 71.253s31.901 71.253 71.253 71.253v0zM938.667 586.667c-50.962-26.236-85.235-78.437-85.333-138.653v-0.013c0.098-60.229 34.372-112.431 84.461-138.258l0.872-0.409v-117.333h-853.333v117.333c25.987 12.815 47.046 32.23 61.499 56.092l0.368 0.654c14.709 23.26 23.438 51.57 23.438 81.92s-8.729 58.66-23.815 82.559l0.376-0.639c-14.82 24.517-35.88 43.932-61.009 56.363l-0.858 0.384v117.333h853.333zM783.787 606.293c-7.247 7.636-17.47 12.388-28.803 12.388-0.374 0-0.747-0.005-1.118-0.015l0.055 0.001h-483.84c-0.317 0.009-0.689 0.014-1.063 0.014-11.333 0-21.556-4.751-28.787-12.37l-0.016-0.017c-7.89-7.345-12.81-17.79-12.81-29.385 0-0.32 0.004-0.638 0.011-0.956l-0.001 0.047v-256c-0.007-0.271-0.010-0.589-0.010-0.909 0-11.594 4.92-22.040 12.786-29.362l0.024-0.022c7.247-7.636 17.47-12.388 28.803-12.388 0.374 0 0.747 0.005 1.118 0.015l-0.055-0.001h483.84c0.317-0.009 0.689-0.014 1.063-0.014 11.333 0 21.556 4.751 28.787 12.37l0.016 0.017c7.89 7.345 12.81 17.79 12.81 29.385 0 0.32-0.004 0.638-0.011 0.956l0.001-0.047v256c0.007 0.271 0.010 0.589 0.010 0.909 0 11.594-4.92 22.040-12.786 29.362l-0.024 0.022zM711.253 362.667h-398.507v170.667h398.507z" />
<glyph unicode="&#xe911;" glyph-name="trophee" d="M989.013 837.547h-162.133v49.92c0 0.003 0 0.006 0 0.009 0 21.85-17.473 39.619-39.209 40.097l-0.045 0.001h-550.827c-21.966-0.241-39.68-18.104-39.68-40.104 0-0.001 0-0.002 0-0.002v0-49.92h-162.133c-19.323 0-34.987-15.664-34.987-34.987v0c-0.326-6.057-0.511-13.148-0.511-20.283 0-76.142 21.128-147.349 57.842-208.079l-1.011 1.802c28.616-51.803 78.188-89.044 136.98-100.489l1.26-0.204c6.965-1.351 12.608-6.008 15.308-12.238l0.052-0.135c26.413-56.122 69.994-100.529 123.883-127.3l1.557-0.7c36.827-22.99 79.443-41.564 124.764-53.465l3.236-0.722c8.854-2.022 15.36-9.83 15.36-19.157 0-0.015 0-0.030 0-0.045v0.002-201.813c-0.223-10.836-8.83-19.591-19.585-20.052l-0.042-0.001h-160.427c-0.019 0-0.042 0-0.064 0-18.808 0-34.191-14.662-35.344-33.179l-0.005-0.101c-0.029-0.528-0.045-1.147-0.045-1.769 0-18.588 14.495-33.79 32.799-34.919l0.099-0.005h431.787c0.019 0 0.042 0 0.064 0 18.808 0 34.191 14.662 35.344 33.179l0.005 0.101c0.029 0.528 0.045 1.147 0.045 1.769 0 18.588-14.495 33.79-32.799 34.919l-0.099 0.005h-163.84c-10.98 0.234-19.82 9.073-20.053 20.031v200.129c0.294 9.234 6.657 16.903 15.217 19.168l0.143 0.032c48.584 12.909 91.164 31.308 130.182 54.99l-2.182-1.23c55.681 28.257 99.298 73.527 124.748 128.88l0.692 1.68c2.752 6.365 8.395 11.022 15.228 12.352l0.132 0.021c59.741 11.848 109.062 48.845 137.291 99.251l0.522 1.015c35.137 59.396 55.899 130.9 55.899 207.254 0 6.64-0.157 13.244-0.468 19.807l0.035-0.928c0 0.003 0 0.007 0 0.010 0 19.258-15.372 34.926-34.516 35.402l-0.044 0.001zM197.12 561.067c0.006-0.127 0.010-0.277 0.010-0.427 0-5.184-4.203-9.387-9.387-9.387-0.003 0-0.007 0-0.010 0h-3.839c-33.336 14.385-59.625 39.845-74.717 71.651l-0.377 0.883c-21.393 35.149-34.906 77.224-37.097 122.273l-0.023 0.607c-0.052 0.543-0.082 1.174-0.082 1.812 0 10.353 7.845 18.873 17.914 19.941l0.088 0.008h87.893c0.179 0.006 0.389 0.009 0.599 0.009 10.604 0 19.2-8.596 19.2-19.2 0-0.906-0.063-1.798-0.184-2.67l0.011 0.101zM915.627 623.787c-15.713-32.534-42.119-57.835-74.567-71.743l-0.953-0.363c-0.974-0.339-2.096-0.534-3.264-0.534-4.312 0-8.002 2.665-9.511 6.439l-0.024 0.069c-0.1 0.513-0.156 1.103-0.156 1.707s0.057 1.194 0.166 1.765l-0.009-0.059v185.6c-0.003 0.127-0.005 0.277-0.005 0.427 0 10.84 8.787 19.627 19.627 19.627 0.002 0 0.003 0 0.005 0h85.333c11.075 0 20.053-8.978 20.053-20.053v0c-2.798-45.344-16.232-87.022-37.813-123.284l0.693 1.257z" />
<glyph unicode="&#xe912;" glyph-name="tv" d="M875.947 736.427h-258.133l132.693 132.693c9.050 9.228 14.636 21.882 14.636 35.84s-5.586 26.612-14.644 35.848l0.008-0.008c-9.134 9.255-21.818 14.987-35.84 14.987s-26.706-5.733-35.835-14.982l-166.832-166.832-167.253 166.827c-9.134 9.255-21.818 14.987-35.84 14.987s-26.706-5.733-35.835-14.982l-0.005-0.005c-9.050-9.228-14.636-21.882-14.636-35.84s5.586-26.612 14.644-35.848l132.685-132.685h-256c-0.634 0.010-1.383 0.015-2.133 0.015-81.532 0-147.627-66.095-147.627-147.627 0-0.005 0-0.011 0-0.016v0.001-500.48c0-81.768 66.286-148.053 148.053-148.053v0h727.893c0 0 0 0 0.001 0 81.618 0 147.81 66.043 148.053 147.603v500.93c0 0 0 0 0 0.001 0 81.532-66.095 147.627-147.627 147.627-0.15 0-0.3 0-0.45-0.001h0.023zM950.187 99.413c0-41.002-33.238-74.24-74.24-74.24v0h-728.32c-41.002 0-74.24 33.238-74.24 74.24v0 476.587c-0.013 0.509-0.020 1.107-0.020 1.708 0 40.766 33.047 73.813 73.813 73.813 0.157 0 0.314 0 0.471-0.001h728.296c0.133 0.001 0.289 0.001 0.446 0.001 40.766 0 73.813-33.047 73.813-73.813 0-0.601-0.007-1.2-0.021-1.797l0.002 0.089z" />
<glyph unicode="&#xe913;" glyph-name="user-arrow" d="M485.973 130.133v97.707h391.253l-112.213 112.213 69.12 69.12 161.28-160.853c17.598-17.731 28.473-42.156 28.473-69.12s-10.875-51.389-28.479-69.126l-161.274-161.274-69.12 69.12 112.213 112.213zM583.68 311.467h-289.28c-0.016 0-0.034 0-0.053 0-41.624 0-77.143-26.142-91.032-62.904l-0.222-0.669-111.36-296.107-91.733 34.56 110.933 296.107c28.476 75.211 99.804 127.76 183.437 128h392.989zM485.973 849.493c-81.058-0.003-146.768-65.715-146.768-146.773 0-81.061 65.713-146.773 146.773-146.773s146.773 65.713 146.773 146.773c0 0.45-0.002 0.9-0.006 1.349v-0.069c0 81.061-65.713 146.773-146.773 146.773v0zM485.973 458.24c-135.021 0.002-244.477 109.459-244.477 244.48 0 135.023 109.457 244.48 244.48 244.48 134.573 0 243.75-108.729 244.476-243.131v-0.069c0.004-0.507 0.006-1.107 0.006-1.707 0-134.787-109.266-244.053-244.053-244.053-0.152 0-0.304 0-0.456 0h0.023z" />
<glyph unicode="&#xe914;" glyph-name="user" d="M1024-28.587l-116.907 301.653c-30.532 78.018-105.135 132.269-192.408 132.269-0.307 0-0.613-0.001-0.919-0.002h-403.58c-0.76 0.010-1.658 0.016-2.558 0.016-85.665 0-159.122-52.269-190.218-126.655l-0.504-1.361-116.907-305.92 96.853-35.413 116.48 304.64c15.683 38.577 52.877 65.28 96.307 65.28 0.042 0 0.084 0 0.127 0h403.62c0.289 0.003 0.63 0.005 0.971 0.005 43.432 0 80.626-26.705 96.059-64.591l0.25-0.693 116.48-304.64zM512 859.307c-81.936-1.911-147.627-68.785-147.627-151.001 0-83.417 67.623-151.040 151.040-151.040 83.403 0 151.018 67.601 151.040 150.999v0.002c0 0.012 0 0.025 0 0.039 0 83.417-67.623 151.040-151.040 151.040-1.2 0-2.397-0.014-3.591-0.042l0.178 0.003zM512 456.533c-137.181 2.399-247.467 114.169-247.467 251.697 0 139.028 112.705 251.733 251.733 251.733 139.016 0 251.713-112.684 251.733-251.695v-0.002c-2.636-139.352-116.222-251.307-255.957-251.307-0.015 0-0.030 0-0.045 0h0.002z" />
</font>
</defs>
</svg>
