<svg xmlns="http://www.w3.org/2000/svg" viewBox="0 0 160 40"><path class="f1" d="M0,40,28,12C38.09,1.91,43.57,0,62.63,0h68.49l-13.9,13.63H65.61c-14.06,0-17.68,1.12-24.6,8L22.53,40Z"/><path class="f1" d="M67,17.42c-14.06,0-16.78.63-23.12,7L28.39,40H49.26l5-5.06c2.93-3,4.15-3.78,11.13-3.78H99.49l13.9-13.74Z"/><polyline class="f1" points="159.88 0 136.02 0 96.02 40 119.72 40 159.88 0"/><polygon class="trademark" points="134.59 33.33 139.99 33.33 139.99 34.34 137.87 34.34 137.87 40 136.7 40 136.7 34.34 134.59 34.34 134.59 33.33"/><polygon class="trademark" points="141.07 33.33 142.71 33.33 144.55 38.55 144.57 38.55 146.36 33.33 147.99 33.33 147.99 40 146.88 40 146.88 34.85 146.86 34.85 145.01 40 144.05 40 142.2 34.85 142.18 34.85 142.18 40 141.07 40 141.07 33.33"/></svg>
